<svg width="1412" height="554" viewBox="0 0 1412 554" fill="none" xmlns="http://www.w3.org/2000/svg">
<rect x="623" y="438.622" width="166.909" height="48" rx="4" fill="#ED0000"/>
<path d="M668.517 459.534H670.332C670.305 458.74 670.15 458.061 669.868 457.496C669.599 456.918 669.223 456.441 668.738 456.064C668.268 455.688 667.716 455.412 667.084 455.237C666.452 455.063 665.767 454.975 665.027 454.975C664.368 454.975 663.723 455.063 663.091 455.237C662.472 455.399 661.914 455.654 661.416 456.004C660.932 456.34 660.542 456.777 660.246 457.315C659.951 457.839 659.803 458.465 659.803 459.191C659.803 459.85 659.93 460.401 660.186 460.845C660.455 461.275 660.804 461.632 661.235 461.914C661.679 462.183 662.176 462.405 662.727 462.58C663.279 462.741 663.837 462.889 664.402 463.023C664.98 463.144 665.545 463.265 666.096 463.386C666.647 463.507 667.138 463.669 667.568 463.871C668.012 464.059 668.362 464.308 668.617 464.617C668.886 464.926 669.021 465.33 669.021 465.827C669.021 466.352 668.913 466.782 668.698 467.118C668.483 467.454 668.201 467.723 667.851 467.925C667.501 468.113 667.105 468.248 666.661 468.328C666.23 468.409 665.8 468.449 665.37 468.449C664.832 468.449 664.308 468.382 663.797 468.248C663.286 468.113 662.835 467.905 662.445 467.622C662.069 467.34 661.759 466.984 661.517 466.553C661.289 466.109 661.174 465.585 661.174 464.98H659.359C659.359 465.854 659.514 466.614 659.823 467.259C660.146 467.891 660.576 468.416 661.114 468.833C661.665 469.236 662.297 469.539 663.01 469.74C663.736 469.942 664.503 470.043 665.309 470.043C665.968 470.043 666.627 469.962 667.286 469.801C667.958 469.653 668.564 469.411 669.101 469.075C669.639 468.725 670.076 468.281 670.413 467.743C670.762 467.192 670.937 466.533 670.937 465.767C670.937 465.054 670.803 464.462 670.534 463.992C670.278 463.521 669.928 463.131 669.485 462.822C669.054 462.512 668.564 462.27 668.012 462.095C667.461 461.907 666.896 461.746 666.318 461.611C665.753 461.477 665.195 461.356 664.644 461.248C664.092 461.127 663.595 460.979 663.151 460.805C662.721 460.63 662.371 460.408 662.102 460.139C661.847 459.856 661.719 459.493 661.719 459.05C661.719 458.579 661.806 458.189 661.981 457.88C662.169 457.557 662.411 457.301 662.707 457.113C663.017 456.925 663.366 456.79 663.756 456.71C664.146 456.629 664.543 456.589 664.946 456.589C665.941 456.589 666.755 456.824 667.387 457.295C668.032 457.752 668.409 458.498 668.517 459.534ZM672.983 455.318V469.72H674.698V463.83C674.698 463.36 674.758 462.929 674.879 462.539C675.014 462.136 675.209 461.786 675.464 461.49C675.72 461.194 676.036 460.966 676.412 460.805C676.802 460.643 677.259 460.562 677.784 460.562C678.443 460.562 678.96 460.751 679.337 461.127C679.714 461.504 679.902 462.015 679.902 462.66V469.72H681.616V462.862C681.616 462.297 681.556 461.786 681.435 461.329C681.327 460.858 681.132 460.455 680.85 460.119C680.567 459.783 680.198 459.52 679.74 459.332C679.283 459.144 678.712 459.05 678.026 459.05C677.717 459.05 677.394 459.083 677.058 459.15C676.735 459.218 676.419 459.325 676.11 459.473C675.814 459.608 675.545 459.789 675.303 460.018C675.061 460.233 674.872 460.502 674.738 460.825H674.698V455.318H672.983ZM685.442 464.516C685.442 463.884 685.523 463.326 685.684 462.842C685.859 462.344 686.094 461.927 686.39 461.591C686.686 461.255 687.029 461 687.419 460.825C687.822 460.65 688.246 460.562 688.69 460.562C689.133 460.562 689.55 460.65 689.94 460.825C690.344 461 690.693 461.255 690.989 461.591C691.285 461.927 691.513 462.344 691.675 462.842C691.85 463.326 691.937 463.884 691.937 464.516C691.937 465.148 691.85 465.713 691.675 466.21C691.513 466.694 691.285 467.105 690.989 467.441C690.693 467.764 690.344 468.012 689.94 468.187C689.55 468.362 689.133 468.449 688.69 468.449C688.246 468.449 687.822 468.362 687.419 468.187C687.029 468.012 686.686 467.764 686.39 467.441C686.094 467.105 685.859 466.694 685.684 466.21C685.523 465.713 685.442 465.148 685.442 464.516ZM683.627 464.516C683.627 465.282 683.734 465.995 683.949 466.654C684.165 467.313 684.487 467.891 684.918 468.389C685.348 468.873 685.879 469.256 686.511 469.539C687.143 469.808 687.869 469.942 688.69 469.942C689.523 469.942 690.249 469.808 690.868 469.539C691.5 469.256 692.031 468.873 692.462 468.389C692.892 467.891 693.215 467.313 693.43 466.654C693.645 465.995 693.752 465.282 693.752 464.516C693.752 463.749 693.645 463.037 693.43 462.378C693.215 461.705 692.892 461.127 692.462 460.643C692.031 460.146 691.5 459.756 690.868 459.473C690.249 459.191 689.523 459.05 688.69 459.05C687.869 459.05 687.143 459.191 686.511 459.473C685.879 459.756 685.348 460.146 684.918 460.643C684.487 461.127 684.165 461.705 683.949 462.378C683.734 463.037 683.627 463.749 683.627 464.516ZM695.834 459.292V473.694H697.549V468.328H697.589C697.778 468.638 698.006 468.9 698.275 469.115C698.558 469.317 698.853 469.478 699.163 469.599C699.472 469.72 699.781 469.808 700.091 469.861C700.413 469.915 700.702 469.942 700.958 469.942C701.751 469.942 702.444 469.801 703.036 469.518C703.641 469.236 704.138 468.853 704.528 468.369C704.932 467.871 705.227 467.293 705.416 466.634C705.617 465.975 705.718 465.276 705.718 464.536C705.718 463.797 705.617 463.097 705.416 462.438C705.214 461.779 704.911 461.201 704.508 460.704C704.118 460.193 703.62 459.789 703.015 459.493C702.424 459.198 701.724 459.05 700.918 459.05C700.191 459.05 699.526 459.184 698.921 459.453C698.316 459.709 697.872 460.125 697.589 460.704H697.549V459.292H695.834ZM703.903 464.415C703.903 464.926 703.849 465.424 703.742 465.908C703.634 466.392 703.459 466.822 703.217 467.199C702.975 467.575 702.652 467.878 702.249 468.106C701.859 468.335 701.368 468.449 700.776 468.449C700.185 468.449 699.68 468.342 699.264 468.127C698.847 467.898 698.504 467.602 698.235 467.239C697.979 466.876 697.791 466.459 697.67 465.988C697.549 465.504 697.489 465.007 697.489 464.496C697.489 464.012 697.542 463.534 697.65 463.064C697.771 462.593 697.959 462.176 698.215 461.813C698.47 461.437 698.8 461.134 699.203 460.905C699.606 460.677 700.097 460.562 700.676 460.562C701.227 460.562 701.704 460.67 702.108 460.885C702.525 461.1 702.861 461.389 703.116 461.753C703.385 462.116 703.58 462.532 703.701 463.003C703.836 463.46 703.903 463.931 703.903 464.415ZM713.607 455.318V469.72H715.422V458.162H715.463L722.987 469.72H725.084V455.318H723.269V466.997H723.229L715.644 455.318H713.607ZM729.152 464.516C729.152 463.884 729.233 463.326 729.394 462.842C729.569 462.344 729.805 461.927 730.1 461.591C730.396 461.255 730.739 461 731.129 460.825C731.533 460.65 731.956 460.562 732.4 460.562C732.844 460.562 733.261 460.65 733.651 460.825C734.054 461 734.404 461.255 734.699 461.591C734.995 461.927 735.224 462.344 735.385 462.842C735.56 463.326 735.647 463.884 735.647 464.516C735.647 465.148 735.56 465.713 735.385 466.21C735.224 466.694 734.995 467.105 734.699 467.441C734.404 467.764 734.054 468.012 733.651 468.187C733.261 468.362 732.844 468.449 732.4 468.449C731.956 468.449 731.533 468.362 731.129 468.187C730.739 468.012 730.396 467.764 730.1 467.441C729.805 467.105 729.569 466.694 729.394 466.21C729.233 465.713 729.152 465.148 729.152 464.516ZM727.337 464.516C727.337 465.282 727.445 465.995 727.66 466.654C727.875 467.313 728.198 467.891 728.628 468.389C729.058 468.873 729.589 469.256 730.221 469.539C730.853 469.808 731.58 469.942 732.4 469.942C733.234 469.942 733.96 469.808 734.578 469.539C735.21 469.256 735.742 468.873 736.172 468.389C736.602 467.891 736.925 467.313 737.14 466.654C737.355 465.995 737.463 465.282 737.463 464.516C737.463 463.749 737.355 463.037 737.14 462.378C736.925 461.705 736.602 461.127 736.172 460.643C735.742 460.146 735.21 459.756 734.578 459.473C733.96 459.191 733.234 459.05 732.4 459.05C731.58 459.05 730.853 459.191 730.221 459.473C729.589 459.756 729.058 460.146 728.628 460.643C728.198 461.127 727.875 461.705 727.66 462.378C727.445 463.037 727.337 463.749 727.337 464.516ZM749.812 469.72L753.14 459.292H751.365L749.025 467.824H748.985L746.806 459.292H744.931L742.833 467.824H742.792L740.432 459.292H738.536L741.885 469.72H743.74L745.838 461.43H745.879L747.996 469.72H749.812Z" fill="white"/>
<path d="M385.084 72.5015V133H389.998V124.696H390.168C391.411 127.747 393.416 130.091 396.184 131.729C399.008 133.367 402.2 134.186 405.758 134.186C409.091 134.186 411.972 133.593 414.401 132.407C416.887 131.164 418.948 129.498 420.587 127.408C422.225 125.261 423.439 122.804 424.23 120.036C425.021 117.212 425.416 114.246 425.416 111.139C425.416 108.032 425.021 105.095 424.23 102.327C423.439 99.5027 422.225 97.0455 420.587 94.9554C418.948 92.8089 416.887 91.1143 414.401 89.8715C411.972 88.6288 409.091 88.0074 405.758 88.0074C404.177 88.0074 402.595 88.2051 401.013 88.6006C399.432 88.996 397.963 89.6173 396.607 90.4647C395.252 91.2555 394.037 92.244 392.964 93.4303C391.947 94.6165 391.156 96.0005 390.591 97.5821H390.422V72.5015H385.084ZM420.078 111.139C420.078 113.399 419.796 115.658 419.231 117.918C418.722 120.121 417.875 122.098 416.689 123.849C415.559 125.6 414.09 127.041 412.283 128.17C410.475 129.244 408.3 129.78 405.758 129.78C402.934 129.78 400.533 129.244 398.556 128.17C396.636 127.041 395.054 125.6 393.811 123.849C392.625 122.098 391.749 120.121 391.185 117.918C390.676 115.658 390.422 113.399 390.422 111.139C390.422 108.88 390.676 106.648 391.185 104.445C391.749 102.186 392.625 100.181 393.811 98.4294C395.054 96.6783 396.636 95.2661 398.556 94.1929C400.533 93.0631 402.934 92.4982 405.758 92.4982C408.3 92.4982 410.475 93.0631 412.283 94.1929C414.09 95.2661 415.559 96.6783 416.689 98.4294C417.875 100.181 418.722 102.186 419.231 104.445C419.796 106.648 420.078 108.88 420.078 111.139ZM462.632 108.089H434.332C434.558 106.112 435.009 104.191 435.687 102.327C436.422 100.407 437.382 98.7401 438.568 97.3279C439.754 95.8592 441.195 94.7012 442.889 93.8539C444.584 92.9501 446.533 92.4982 448.736 92.4982C450.883 92.4982 452.803 92.9501 454.498 93.8539C456.192 94.7012 457.633 95.8592 458.819 97.3279C460.005 98.7401 460.909 100.378 461.53 102.242C462.208 104.106 462.576 106.055 462.632 108.089ZM434.332 112.58H467.97C468.083 109.529 467.801 106.535 467.123 103.598C466.445 100.604 465.315 97.9775 463.734 95.718C462.208 93.402 460.203 91.5379 457.718 90.1257C455.232 88.7135 452.238 88.0074 448.736 88.0074C445.29 88.0074 442.296 88.6853 439.754 90.041C437.269 91.3402 435.235 93.0913 433.654 95.2944C432.072 97.4409 430.886 99.8981 430.095 102.666C429.361 105.434 428.993 108.258 428.993 111.139C428.993 114.246 429.361 117.212 430.095 120.036C430.886 122.804 432.072 125.261 433.654 127.408C435.235 129.498 437.269 131.164 439.754 132.407C442.296 133.593 445.29 134.186 448.736 134.186C454.272 134.186 458.537 132.831 461.53 130.119C464.581 127.408 466.671 123.567 467.801 118.596H462.463C461.615 121.985 460.09 124.696 457.887 126.73C455.684 128.763 452.634 129.78 448.736 129.78C446.194 129.78 444.019 129.244 442.212 128.17C440.404 127.097 438.907 125.741 437.721 124.103C436.535 122.465 435.659 120.629 435.094 118.596C434.586 116.506 434.332 114.5 434.332 112.58ZM472.084 102.666H477.422C477.535 99.1073 478.665 96.5371 480.812 94.9554C482.958 93.3173 485.726 92.4982 489.115 92.4982C490.697 92.4982 492.166 92.6394 493.521 92.9219C494.934 93.1478 496.148 93.5997 497.165 94.2776C498.238 94.9554 499.057 95.8875 499.622 97.0737C500.243 98.2035 500.554 99.6722 500.554 101.48C500.554 102.666 500.385 103.626 500.046 104.361C499.763 105.095 499.34 105.688 498.775 106.14C498.21 106.535 497.504 106.818 496.656 106.987C495.809 107.157 494.821 107.298 493.691 107.411C490.81 107.75 487.957 108.117 485.133 108.513C482.365 108.851 479.851 109.473 477.592 110.377C475.389 111.28 473.609 112.608 472.254 114.359C470.898 116.054 470.22 118.426 470.22 121.476C470.22 123.68 470.587 125.6 471.322 127.238C472.112 128.82 473.157 130.147 474.457 131.221C475.812 132.237 477.366 132.972 479.117 133.424C480.925 133.932 482.845 134.186 484.879 134.186C487.025 134.186 488.861 133.989 490.386 133.593C491.968 133.198 493.352 132.633 494.538 131.898C495.781 131.164 496.882 130.26 497.843 129.187C498.859 128.057 499.848 126.786 500.808 125.374H500.978C500.978 126.504 501.034 127.549 501.147 128.509C501.317 129.413 501.627 130.204 502.079 130.882C502.531 131.56 503.153 132.096 503.943 132.492C504.791 132.831 505.892 133 507.248 133C507.982 133 508.575 132.972 509.027 132.915C509.536 132.859 510.101 132.774 510.722 132.661V128.17C510.214 128.396 509.649 128.509 509.027 128.509C506.937 128.509 505.892 127.436 505.892 125.289V102.073C505.892 99.1355 505.412 96.763 504.452 94.9554C503.491 93.0913 502.249 91.6509 500.724 90.6341C499.198 89.6173 497.476 88.9395 495.555 88.6006C493.634 88.2051 491.714 88.0074 489.793 88.0074C487.251 88.0074 484.935 88.2899 482.845 88.8548C480.755 89.4196 478.919 90.2952 477.338 91.4814C475.812 92.6677 474.598 94.1929 473.694 96.057C472.79 97.9211 472.254 100.124 472.084 102.666ZM500.554 109.106V116.054C500.554 118.2 500.13 120.121 499.283 121.815C498.492 123.51 497.391 124.95 495.979 126.137C494.623 127.323 493.013 128.227 491.149 128.848C489.285 129.47 487.336 129.78 485.302 129.78C484.06 129.78 482.845 129.582 481.659 129.187C480.473 128.792 479.428 128.227 478.524 127.492C477.62 126.702 476.886 125.798 476.321 124.781C475.812 123.708 475.558 122.493 475.558 121.138C475.558 118.991 476.18 117.353 477.422 116.223C478.722 115.037 480.36 114.133 482.337 113.512C484.314 112.89 486.489 112.438 488.861 112.156C491.29 111.817 493.634 111.45 495.894 111.054C496.628 110.941 497.476 110.744 498.436 110.461C499.396 110.179 500.046 109.727 500.385 109.106H500.554ZM549.407 133V89.2784H544.068V112.241C544.068 114.444 543.814 116.619 543.306 118.765C542.798 120.855 542.007 122.719 540.933 124.357C539.86 125.996 538.504 127.323 536.866 128.34C535.228 129.3 533.251 129.78 530.935 129.78C526.698 129.78 523.705 128.763 521.953 126.73C520.259 124.696 519.355 121.702 519.242 117.748V89.2784H513.904V117.664C513.904 120.262 514.186 122.578 514.751 124.612C515.316 126.645 516.192 128.368 517.378 129.78C518.621 131.192 520.202 132.266 522.123 133C524.1 133.791 526.473 134.186 529.24 134.186C532.517 134.186 535.482 133.424 538.137 131.898C540.849 130.317 542.91 128.057 544.323 125.12H544.492V133H549.407ZM565.43 89.2784V76.145H560.092V89.2784H552.466V93.7692H560.092V123.68C560.036 127.408 560.713 129.978 562.126 131.39C563.538 132.746 566.023 133.424 569.582 133.424C570.373 133.424 571.164 133.395 571.955 133.339C572.745 133.282 573.536 133.254 574.327 133.254V128.763C572.802 128.933 571.277 129.018 569.751 129.018C567.831 128.905 566.616 128.368 566.108 127.408C565.656 126.391 565.43 125.007 565.43 123.256V93.7692H574.327V89.2784H565.43ZM579.572 72.5015V81.0594H584.91V72.5015H579.572ZM579.572 89.2784V133H584.91V89.2784H579.572ZM609.446 93.7692V89.2784H600.803V85.4655C600.803 84.2792 600.831 83.1777 600.888 82.1609C600.944 81.1442 601.142 80.2686 601.481 79.5343C601.876 78.7434 602.469 78.1221 603.26 77.6702C604.051 77.2183 605.181 76.9923 606.65 76.9923C607.271 76.9923 607.892 77.0488 608.514 77.1618C609.135 77.2183 609.813 77.303 610.547 77.416V72.8404C609.7 72.7275 608.937 72.6427 608.259 72.5863C607.582 72.5298 606.847 72.5015 606.056 72.5015C603.91 72.5015 602.13 72.8122 600.718 73.4336C599.363 74.0549 598.289 74.9305 597.498 76.0603C596.708 77.19 596.171 78.5457 595.889 80.1274C595.606 81.709 595.465 83.4319 595.465 85.296V89.2784H588.009V93.7692H595.465V133H600.803V93.7692H609.446ZM647.388 133V89.2784H642.05V112.241C642.05 114.444 641.795 116.619 641.287 118.765C640.779 120.855 639.988 122.719 638.914 124.357C637.841 125.996 636.485 127.323 634.847 128.34C633.209 129.3 631.232 129.78 628.916 129.78C624.68 129.78 621.686 128.763 619.935 126.73C618.24 124.696 617.336 121.702 617.223 117.748V89.2784H611.885V117.664C611.885 120.262 612.167 122.578 612.732 124.612C613.297 126.645 614.173 128.368 615.359 129.78C616.602 131.192 618.183 132.266 620.104 133C622.081 133.791 624.454 134.186 627.221 134.186C630.498 134.186 633.463 133.424 636.118 131.898C638.83 130.317 640.892 128.057 642.304 125.12H642.473V133H647.388ZM655.023 72.5015V133H660.361V72.5015H655.023ZM720.681 111.139C720.681 112.947 720.483 114.698 720.087 116.393C719.692 118.087 719.071 119.584 718.223 120.883C717.376 122.183 716.303 123.228 715.004 124.018C713.761 124.753 712.236 125.12 710.428 125.12C708.677 125.12 707.152 124.753 705.853 124.018C704.553 123.228 703.48 122.183 702.633 120.883C701.785 119.584 701.164 118.087 700.769 116.393C700.373 114.698 700.175 112.947 700.175 111.139C700.175 109.275 700.373 107.496 700.769 105.801C701.164 104.106 701.785 102.61 702.633 101.31C703.48 100.011 704.553 98.9943 705.853 98.26C707.152 97.4691 708.677 97.0737 710.428 97.0737C712.236 97.0737 713.761 97.4691 715.004 98.26C716.303 98.9943 717.376 100.011 718.223 101.31C719.071 102.61 719.692 104.106 720.087 105.801C720.483 107.496 720.681 109.275 720.681 111.139ZM688.567 72.5015V133H700.006V127.408H700.175C701.475 129.837 703.395 131.56 705.937 132.576C708.479 133.593 711.36 134.102 714.58 134.102C716.783 134.102 718.958 133.65 721.104 132.746C723.251 131.842 725.171 130.458 726.866 128.594C728.617 126.73 730.029 124.357 731.103 121.476C732.176 118.539 732.712 115.065 732.712 111.054C732.712 107.044 732.176 103.598 731.103 100.717C730.029 97.7798 728.617 95.3791 726.866 93.515C725.171 91.6509 723.251 90.2669 721.104 89.3631C718.958 88.4593 716.783 88.0074 714.58 88.0074C711.868 88.0074 709.242 88.5441 706.7 89.6173C704.214 90.6341 702.237 92.2723 700.769 94.5318H700.599V72.5015H688.567ZM767.311 106.394H747.738C747.794 105.547 747.964 104.587 748.246 103.513C748.585 102.44 749.122 101.423 749.856 100.463C750.647 99.5027 751.664 98.7119 752.906 98.0905C754.206 97.4127 755.816 97.0737 757.736 97.0737C760.674 97.0737 762.848 97.8646 764.261 99.4462C765.729 101.028 766.746 103.344 767.311 106.394ZM747.738 114.02H779.343C779.569 110.631 779.286 107.383 778.495 104.276C777.705 101.169 776.405 98.4012 774.598 95.9722C772.847 93.5432 770.587 91.6227 767.819 90.2105C765.051 88.7418 761.803 88.0074 758.075 88.0074C754.742 88.0074 751.692 88.6006 748.924 89.7868C746.213 90.973 743.868 92.6112 741.891 94.7012C739.914 96.7348 738.389 99.1638 737.316 101.988C736.243 104.813 735.706 107.863 735.706 111.139C735.706 114.528 736.214 117.635 737.231 120.46C738.304 123.284 739.801 125.713 741.722 127.747C743.642 129.78 745.987 131.362 748.755 132.492C751.523 133.565 754.629 134.102 758.075 134.102C763.046 134.102 767.283 132.972 770.785 130.712C774.287 128.453 776.886 124.696 778.58 119.443H767.989C767.593 120.799 766.52 122.098 764.769 123.341C763.018 124.527 760.928 125.12 758.499 125.12C755.109 125.12 752.511 124.244 750.703 122.493C748.896 120.742 747.907 117.918 747.738 114.02ZM815.033 110.97C815.033 112.777 814.864 114.528 814.525 116.223C814.186 117.918 813.621 119.443 812.83 120.799C812.04 122.098 810.966 123.143 809.611 123.934C808.311 124.725 806.673 125.12 804.696 125.12C802.832 125.12 801.222 124.725 799.866 123.934C798.567 123.086 797.466 122.013 796.562 120.714C795.715 119.358 795.093 117.833 794.698 116.138C794.302 114.444 794.105 112.749 794.105 111.054C794.105 109.247 794.274 107.524 794.613 105.886C795.008 104.191 795.602 102.694 796.392 101.395C797.24 100.096 798.341 99.0508 799.697 98.26C801.053 97.4691 802.719 97.0737 804.696 97.0737C806.673 97.0737 808.311 97.4691 809.611 98.26C810.91 99.0508 811.955 100.096 812.746 101.395C813.593 102.638 814.186 104.106 814.525 105.801C814.864 107.439 815.033 109.162 815.033 110.97ZM815.203 127.408V133H826.642V72.5015H814.61V94.5318H814.44C813.085 92.3852 811.22 90.7753 808.848 89.7021C806.532 88.5723 804.075 88.0074 801.476 88.0074C798.256 88.0074 795.432 88.657 793.003 89.9563C790.574 91.199 788.541 92.8654 786.902 94.9554C785.321 97.0455 784.106 99.4745 783.259 102.242C782.468 104.954 782.073 107.778 782.073 110.716C782.073 113.766 782.468 116.703 783.259 119.528C784.106 122.352 785.321 124.866 786.902 127.069C788.541 129.215 790.602 130.938 793.088 132.237C795.573 133.48 798.454 134.102 801.73 134.102C804.611 134.102 807.182 133.593 809.441 132.576C811.757 131.503 813.621 129.78 815.033 127.408H815.203ZM833.194 89.1937V133H845.226V113.257C845.226 111.28 845.423 109.445 845.819 107.75C846.214 106.055 846.864 104.587 847.768 103.344C848.728 102.045 849.971 101.028 851.496 100.294C853.021 99.5592 854.885 99.192 857.088 99.192C857.822 99.192 858.585 99.2485 859.376 99.3615C860.167 99.418 860.845 99.5027 861.409 99.6157V88.4311C860.449 88.1487 859.574 88.0074 858.783 88.0074C857.258 88.0074 855.789 88.2334 854.377 88.6853C852.965 89.1372 851.637 89.7868 850.394 90.6341C849.152 91.4249 848.05 92.4135 847.09 93.5997C846.129 94.7295 845.367 95.9722 844.802 97.3279H844.633V89.1937H833.194ZM872.771 111.139C872.771 109.388 872.941 107.665 873.28 105.971C873.619 104.276 874.184 102.779 874.974 101.48C875.822 100.181 876.923 99.1355 878.279 98.3447C879.635 97.4974 881.329 97.0737 883.363 97.0737C885.396 97.0737 887.091 97.4974 888.447 98.3447C889.859 99.1355 890.961 100.181 891.751 101.48C892.599 102.779 893.192 104.276 893.531 105.971C893.87 107.665 894.039 109.388 894.039 111.139C894.039 112.89 893.87 114.613 893.531 116.308C893.192 117.946 892.599 119.443 891.751 120.799C890.961 122.098 889.859 123.143 888.447 123.934C887.091 124.725 885.396 125.12 883.363 125.12C881.329 125.12 879.635 124.725 878.279 123.934C876.923 123.143 875.822 122.098 874.974 120.799C874.184 119.443 873.619 117.946 873.28 116.308C872.941 114.613 872.771 112.89 872.771 111.139ZM860.74 111.139C860.74 114.641 861.276 117.805 862.349 120.629C863.423 123.454 864.948 125.883 866.925 127.916C868.902 129.893 871.275 131.418 874.042 132.492C876.81 133.565 879.917 134.102 883.363 134.102C886.809 134.102 889.915 133.565 892.683 132.492C895.508 131.418 897.909 129.893 899.886 127.916C901.863 125.883 903.388 123.454 904.461 120.629C905.534 117.805 906.071 114.641 906.071 111.139C906.071 107.637 905.534 104.474 904.461 101.649C903.388 98.7684 901.863 96.3394 899.886 94.3623C897.909 92.3288 895.508 90.7753 892.683 89.7021C889.915 88.5723 886.809 88.0074 883.363 88.0074C879.917 88.0074 876.81 88.5723 874.042 89.7021C871.275 90.7753 868.902 92.3288 866.925 94.3623C864.948 96.3394 863.423 98.7684 862.349 101.649C861.276 104.474 860.74 107.637 860.74 111.139ZM922.028 111.139C922.028 109.388 922.198 107.665 922.537 105.971C922.876 104.276 923.441 102.779 924.231 101.48C925.079 100.181 926.18 99.1355 927.536 98.3447C928.892 97.4974 930.586 97.0737 932.62 97.0737C934.653 97.0737 936.348 97.4974 937.704 98.3447C939.116 99.1355 940.217 100.181 941.008 101.48C941.856 102.779 942.449 104.276 942.788 105.971C943.127 107.665 943.296 109.388 943.296 111.139C943.296 112.89 943.127 114.613 942.788 116.308C942.449 117.946 941.856 119.443 941.008 120.799C940.217 122.098 939.116 123.143 937.704 123.934C936.348 124.725 934.653 125.12 932.62 125.12C930.586 125.12 928.892 124.725 927.536 123.934C926.18 123.143 925.079 122.098 924.231 120.799C923.441 119.443 922.876 117.946 922.537 116.308C922.198 114.613 922.028 112.89 922.028 111.139ZM909.996 111.139C909.996 114.641 910.533 117.805 911.606 120.629C912.68 123.454 914.205 125.883 916.182 127.916C918.159 129.893 920.531 131.418 923.299 132.492C926.067 133.565 929.174 134.102 932.62 134.102C936.066 134.102 939.172 133.565 941.94 132.492C944.765 131.418 947.165 129.893 949.143 127.916C951.12 125.883 952.645 123.454 953.718 120.629C954.791 117.805 955.328 114.641 955.328 111.139C955.328 107.637 954.791 104.474 953.718 101.649C952.645 98.7684 951.12 96.3394 949.143 94.3623C947.165 92.3288 944.765 90.7753 941.94 89.7021C939.172 88.5723 936.066 88.0074 932.62 88.0074C929.174 88.0074 926.067 88.5723 923.299 89.7021C920.531 90.7753 918.159 92.3288 916.182 94.3623C914.205 96.3394 912.68 98.7684 911.606 101.649C910.533 104.474 909.996 107.637 909.996 111.139ZM960.948 89.1937V133H972.98V107.58C972.98 105.434 973.291 103.711 973.912 102.412C974.533 101.056 975.268 100.039 976.115 99.3615C977.019 98.6271 977.923 98.147 978.826 97.921C979.787 97.6386 980.549 97.4974 981.114 97.4974C983.035 97.4974 984.475 97.8363 985.436 98.5142C986.452 99.1355 987.158 99.9829 987.554 101.056C988.006 102.129 988.26 103.316 988.316 104.615C988.373 105.858 988.401 107.129 988.401 108.428V133H1000.43V108.597C1000.43 107.242 1000.52 105.914 1000.69 104.615C1000.91 103.259 1001.31 102.073 1001.87 101.056C1002.49 99.9829 1003.31 99.1355 1004.33 98.5142C1005.4 97.8363 1006.79 97.4974 1008.48 97.4974C1010.18 97.4974 1011.5 97.7798 1012.46 98.3447C1013.48 98.9096 1014.24 99.6722 1014.75 100.632C1015.26 101.593 1015.57 102.723 1015.68 104.022C1015.8 105.321 1015.85 106.705 1015.85 108.174V133H1027.89V103.683C1027.89 100.858 1027.49 98.4577 1026.7 96.4806C1025.91 94.447 1024.81 92.8089 1023.4 91.5662C1021.98 90.3234 1020.29 89.4196 1018.31 88.8548C1016.33 88.2899 1014.19 88.0074 1011.87 88.0074C1008.82 88.0074 1006.17 88.7418 1003.91 90.2105C1001.7 91.6791 999.953 93.3738 998.654 95.2944C997.467 92.5829 995.716 90.6906 993.4 89.6173C991.141 88.5441 988.627 88.0074 985.859 88.0074C982.978 88.0074 980.408 88.6288 978.149 89.8715C975.946 91.1143 974.053 92.8654 972.472 95.1249H972.302V89.1937H960.948Z" fill="white"/>
<path d="M405.007 180.2C405.007 180.84 404.947 181.46 404.827 182.06C404.707 182.66 404.507 183.2 404.227 183.68C403.947 184.14 403.567 184.51 403.087 184.79C402.627 185.07 402.047 185.21 401.347 185.21C400.687 185.21 400.117 185.07 399.637 184.79C399.177 184.49 398.787 184.11 398.467 183.65C398.167 183.17 397.947 182.63 397.807 182.03C397.667 181.43 397.597 180.83 397.597 180.23C397.597 179.59 397.657 178.98 397.777 178.4C397.917 177.8 398.127 177.27 398.407 176.81C398.707 176.35 399.097 175.98 399.577 175.7C400.057 175.42 400.647 175.28 401.347 175.28C402.047 175.28 402.627 175.42 403.087 175.7C403.547 175.98 403.917 176.35 404.197 176.81C404.497 177.25 404.707 177.77 404.827 178.37C404.947 178.95 405.007 179.56 405.007 180.2ZM405.067 186.02V188H409.117V166.58H404.857V174.38H404.797C404.317 173.62 403.657 173.05 402.817 172.67C401.997 172.27 401.127 172.07 400.207 172.07C399.067 172.07 398.067 172.3 397.207 172.76C396.347 173.2 395.627 173.79 395.047 174.53C394.487 175.27 394.057 176.13 393.757 177.11C393.477 178.07 393.337 179.07 393.337 180.11C393.337 181.19 393.477 182.23 393.757 183.23C394.057 184.23 394.487 185.12 395.047 185.9C395.627 186.66 396.357 187.27 397.237 187.73C398.117 188.17 399.137 188.39 400.297 188.39C401.317 188.39 402.227 188.21 403.027 187.85C403.847 187.47 404.507 186.86 405.007 186.02H405.067ZM412.337 172.49V188H416.597V181.01C416.597 180.31 416.667 179.66 416.807 179.06C416.947 178.46 417.177 177.94 417.497 177.5C417.837 177.04 418.277 176.68 418.817 176.42C419.357 176.16 420.017 176.03 420.797 176.03C421.057 176.03 421.327 176.05 421.607 176.09C421.887 176.11 422.127 176.14 422.327 176.18V172.22C421.987 172.12 421.677 172.07 421.397 172.07C420.857 172.07 420.337 172.15 419.837 172.31C419.337 172.47 418.867 172.7 418.427 173C417.987 173.28 417.597 173.63 417.257 174.05C416.917 174.45 416.647 174.89 416.447 175.37H416.387V172.49H412.337ZM433.91 178.58H426.98C427 178.28 427.06 177.94 427.16 177.56C427.28 177.18 427.47 176.82 427.73 176.48C428.01 176.14 428.37 175.86 428.81 175.64C429.27 175.4 429.84 175.28 430.52 175.28C431.56 175.28 432.33 175.56 432.83 176.12C433.35 176.68 433.71 177.5 433.91 178.58ZM426.98 181.28H438.17C438.25 180.08 438.15 178.93 437.87 177.83C437.59 176.73 437.13 175.75 436.49 174.89C435.87 174.03 435.07 173.35 434.09 172.85C433.11 172.33 431.96 172.07 430.64 172.07C429.46 172.07 428.38 172.28 427.4 172.7C426.44 173.12 425.61 173.7 424.91 174.44C424.21 175.16 423.67 176.02 423.29 177.02C422.91 178.02 422.72 179.1 422.72 180.26C422.72 181.46 422.9 182.56 423.26 183.56C423.64 184.56 424.17 185.42 424.85 186.14C425.53 186.86 426.36 187.42 427.34 187.82C428.32 188.2 429.42 188.39 430.64 188.39C432.4 188.39 433.9 187.99 435.14 187.19C436.38 186.39 437.3 185.06 437.9 183.2H434.15C434.01 183.68 433.63 184.14 433.01 184.58C432.39 185 431.65 185.21 430.79 185.21C429.59 185.21 428.67 184.9 428.03 184.28C427.39 183.66 427.04 182.66 426.98 181.28ZM440.516 177.26C440.576 176.26 440.826 175.43 441.266 174.77C441.706 174.11 442.266 173.58 442.946 173.18C443.626 172.78 444.386 172.5 445.226 172.34C446.086 172.16 446.946 172.07 447.806 172.07C448.586 172.07 449.376 172.13 450.176 172.25C450.976 172.35 451.706 172.56 452.366 172.88C453.026 173.2 453.566 173.65 453.986 174.23C454.406 174.79 454.616 175.54 454.616 176.48V184.55C454.616 185.25 454.656 185.92 454.736 186.56C454.816 187.2 454.956 187.68 455.156 188H450.836C450.756 187.76 450.686 187.52 450.626 187.28C450.586 187.02 450.556 186.76 450.536 186.5C449.856 187.2 449.056 187.69 448.136 187.97C447.216 188.25 446.276 188.39 445.316 188.39C444.576 188.39 443.886 188.3 443.246 188.12C442.606 187.94 442.046 187.66 441.566 187.28C441.086 186.9 440.706 186.42 440.426 185.84C440.166 185.26 440.036 184.57 440.036 183.77C440.036 182.89 440.186 182.17 440.486 181.61C440.806 181.03 441.206 180.57 441.686 180.23C442.186 179.89 442.746 179.64 443.366 179.48C444.006 179.3 444.646 179.16 445.286 179.06C445.926 178.96 446.556 178.88 447.176 178.82C447.796 178.76 448.346 178.67 448.826 178.55C449.306 178.43 449.686 178.26 449.966 178.04C450.246 177.8 450.376 177.46 450.356 177.02C450.356 176.56 450.276 176.2 450.116 175.94C449.976 175.66 449.776 175.45 449.516 175.31C449.276 175.15 448.986 175.05 448.646 175.01C448.326 174.95 447.976 174.92 447.596 174.92C446.756 174.92 446.096 175.1 445.616 175.46C445.136 175.82 444.856 176.42 444.776 177.26H440.516ZM450.356 180.41C450.176 180.57 449.946 180.7 449.666 180.8C449.406 180.88 449.116 180.95 448.796 181.01C448.496 181.07 448.176 181.12 447.836 181.16C447.496 181.2 447.156 181.25 446.816 181.31C446.496 181.37 446.176 181.45 445.856 181.55C445.556 181.65 445.286 181.79 445.046 181.97C444.826 182.13 444.646 182.34 444.506 182.6C444.366 182.86 444.296 183.19 444.296 183.59C444.296 183.97 444.366 184.29 444.506 184.55C444.646 184.81 444.836 185.02 445.076 185.18C445.316 185.32 445.596 185.42 445.916 185.48C446.236 185.54 446.566 185.57 446.906 185.57C447.746 185.57 448.396 185.43 448.856 185.15C449.316 184.87 449.656 184.54 449.876 184.16C450.096 183.76 450.226 183.36 450.266 182.96C450.326 182.56 450.356 182.24 450.356 182V180.41ZM458.043 172.49V188H462.303V179C462.303 178.24 462.413 177.63 462.633 177.17C462.853 176.69 463.113 176.33 463.413 176.09C463.733 175.83 464.053 175.66 464.373 175.58C464.713 175.48 464.983 175.43 465.183 175.43C465.863 175.43 466.373 175.55 466.713 175.79C467.073 176.01 467.323 176.31 467.463 176.69C467.623 177.07 467.713 177.49 467.733 177.95C467.753 178.39 467.763 178.84 467.763 179.3V188H472.023V179.36C472.023 178.88 472.053 178.41 472.113 177.95C472.193 177.47 472.333 177.05 472.533 176.69C472.753 176.31 473.043 176.01 473.403 175.79C473.783 175.55 474.273 175.43 474.873 175.43C475.473 175.43 475.943 175.53 476.283 175.73C476.643 175.93 476.913 176.2 477.093 176.54C477.273 176.88 477.383 177.28 477.423 177.74C477.463 178.2 477.483 178.69 477.483 179.21V188H481.743V177.62C481.743 176.62 481.603 175.77 481.323 175.07C481.043 174.35 480.653 173.77 480.153 173.33C479.653 172.89 479.053 172.57 478.353 172.37C477.653 172.17 476.893 172.07 476.073 172.07C474.993 172.07 474.053 172.33 473.253 172.85C472.473 173.37 471.853 173.97 471.393 174.65C470.973 173.69 470.353 173.02 469.533 172.64C468.733 172.26 467.843 172.07 466.863 172.07C465.843 172.07 464.933 172.29 464.133 172.73C463.353 173.17 462.683 173.79 462.123 174.59H462.063V172.49H458.043ZM485.08 177.98V181.64H494.11V177.98H485.08ZM515.057 188L519.947 172.49H515.567L512.717 182.99H512.657L510.017 172.49H505.877L503.297 183.02H503.237L500.387 172.49H495.887L500.807 188H505.217L507.857 177.59H507.917L510.677 188H515.057ZM525.541 180.26C525.541 179.64 525.601 179.03 525.721 178.43C525.841 177.83 526.041 177.3 526.321 176.84C526.621 176.38 527.011 176.01 527.491 175.73C527.971 175.43 528.571 175.28 529.291 175.28C530.011 175.28 530.611 175.43 531.091 175.73C531.591 176.01 531.981 176.38 532.261 176.84C532.561 177.3 532.771 177.83 532.891 178.43C533.011 179.03 533.071 179.64 533.071 180.26C533.071 180.88 533.011 181.49 532.891 182.09C532.771 182.67 532.561 183.2 532.261 183.68C531.981 184.14 531.591 184.51 531.091 184.79C530.611 185.07 530.011 185.21 529.291 185.21C528.571 185.21 527.971 185.07 527.491 184.79C527.011 184.51 526.621 184.14 526.321 183.68C526.041 183.2 525.841 182.67 525.721 182.09C525.601 181.49 525.541 180.88 525.541 180.26ZM521.281 180.26C521.281 181.5 521.471 182.62 521.851 183.62C522.231 184.62 522.771 185.48 523.471 186.2C524.171 186.9 525.011 187.44 525.991 187.82C526.971 188.2 528.071 188.39 529.291 188.39C530.511 188.39 531.611 188.2 532.591 187.82C533.591 187.44 534.441 186.9 535.141 186.2C535.841 185.48 536.381 184.62 536.761 183.62C537.141 182.62 537.331 181.5 537.331 180.26C537.331 179.02 537.141 177.9 536.761 176.9C536.381 175.88 535.841 175.02 535.141 174.32C534.441 173.6 533.591 173.05 532.591 172.67C531.611 172.27 530.511 172.07 529.291 172.07C528.071 172.07 526.971 172.27 525.991 172.67C525.011 173.05 524.171 173.6 523.471 174.32C522.771 175.02 522.231 175.88 521.851 176.9C521.471 177.9 521.281 179.02 521.281 180.26ZM540.1 172.49V188H544.36V181.01C544.36 180.31 544.43 179.66 544.57 179.06C544.71 178.46 544.94 177.94 545.26 177.5C545.6 177.04 546.04 176.68 546.58 176.42C547.12 176.16 547.78 176.03 548.56 176.03C548.82 176.03 549.09 176.05 549.37 176.09C549.65 176.11 549.89 176.14 550.09 176.18V172.22C549.75 172.12 549.44 172.07 549.16 172.07C548.62 172.07 548.1 172.15 547.6 172.31C547.1 172.47 546.63 172.7 546.19 173C545.75 173.28 545.36 173.63 545.02 174.05C544.68 174.45 544.41 174.89 544.21 175.37H544.15V172.49H540.1ZM557.161 172.49V167.84H552.901V172.49H550.321V175.34H552.901V184.49C552.901 185.27 553.031 185.9 553.291 186.38C553.551 186.86 553.901 187.23 554.341 187.49C554.801 187.75 555.321 187.92 555.901 188C556.501 188.1 557.131 188.15 557.791 188.15C558.211 188.15 558.641 188.14 559.081 188.12C559.521 188.1 559.921 188.06 560.281 188V184.7C560.081 184.74 559.871 184.77 559.651 184.79C559.431 184.81 559.201 184.82 558.961 184.82C558.241 184.82 557.761 184.7 557.521 184.46C557.281 184.22 557.161 183.74 557.161 183.02V175.34H560.281V172.49H557.161ZM562.308 166.58V188H566.568V179.87C566.568 178.29 566.828 177.16 567.348 176.48C567.868 175.78 568.708 175.43 569.868 175.43C570.888 175.43 571.598 175.75 571.998 176.39C572.398 177.01 572.598 177.96 572.598 179.24V188H576.858V178.46C576.858 177.5 576.768 176.63 576.588 175.85C576.428 175.05 576.138 174.38 575.718 173.84C575.298 173.28 574.718 172.85 573.978 172.55C573.258 172.23 572.328 172.07 571.188 172.07C570.388 172.07 569.568 172.28 568.728 172.7C567.888 173.1 567.198 173.75 566.658 174.65H566.568V166.58H562.308ZM587.741 189.92L594.221 172.49H589.811L586.421 183.11H586.361L582.851 172.49H578.321L583.751 187.04C583.871 187.34 583.931 187.66 583.931 188C583.931 188.46 583.791 188.88 583.511 189.26C583.251 189.64 582.841 189.86 582.281 189.92C581.861 189.94 581.441 189.93 581.021 189.89C580.601 189.85 580.191 189.81 579.791 189.77V193.28C580.231 193.32 580.661 193.35 581.081 193.37C581.521 193.41 581.961 193.43 582.401 193.43C583.861 193.43 585.001 193.16 585.821 192.62C586.641 192.08 587.281 191.18 587.741 189.92ZM604.927 175.34V188H609.187V175.34H612.127V172.49H609.187V171.56C609.187 170.92 609.307 170.47 609.547 170.21C609.807 169.93 610.227 169.79 610.807 169.79C611.347 169.79 611.867 169.82 612.367 169.88V166.7C612.007 166.68 611.637 166.66 611.257 166.64C610.877 166.6 610.497 166.58 610.117 166.58C608.377 166.58 607.077 167.02 606.217 167.9C605.357 168.78 604.927 169.91 604.927 171.29V172.49H602.377V175.34H604.927ZM628.537 188V172.49H624.277V180.62C624.277 182.2 624.017 183.34 623.497 184.04C622.977 184.72 622.137 185.06 620.977 185.06C619.957 185.06 619.247 184.75 618.847 184.13C618.447 183.49 618.247 182.53 618.247 181.25V172.49H613.987V182.03C613.987 182.99 614.067 183.87 614.227 184.67C614.407 185.45 614.707 186.12 615.127 186.68C615.547 187.22 616.117 187.64 616.837 187.94C617.577 188.24 618.517 188.39 619.657 188.39C620.557 188.39 621.437 188.19 622.297 187.79C623.157 187.39 623.857 186.74 624.397 185.84H624.487V188H628.537ZM631.77 172.49V188H636.03V181.01C636.03 180.31 636.1 179.66 636.24 179.06C636.38 178.46 636.61 177.94 636.93 177.5C637.27 177.04 637.71 176.68 638.25 176.42C638.79 176.16 639.45 176.03 640.23 176.03C640.49 176.03 640.76 176.05 641.04 176.09C641.32 176.11 641.56 176.14 641.76 176.18V172.22C641.42 172.12 641.11 172.07 640.83 172.07C640.29 172.07 639.77 172.15 639.27 172.31C638.77 172.47 638.3 172.7 637.86 173C637.42 173.28 637.03 173.63 636.69 174.05C636.35 174.45 636.08 174.89 635.88 175.37H635.82V172.49H631.77ZM643.958 172.49V188H648.218V179.87C648.218 178.29 648.478 177.16 648.998 176.48C649.518 175.78 650.358 175.43 651.518 175.43C652.538 175.43 653.248 175.75 653.648 176.39C654.048 177.01 654.248 177.96 654.248 179.24V188H658.508V178.46C658.508 177.5 658.418 176.63 658.238 175.85C658.078 175.05 657.788 174.38 657.368 173.84C656.948 173.28 656.368 172.85 655.628 172.55C654.908 172.23 653.978 172.07 652.838 172.07C651.938 172.07 651.058 172.28 650.198 172.7C649.338 173.1 648.638 173.75 648.098 174.65H648.008V172.49H643.958ZM666.121 170.09V166.58H661.861V170.09H666.121ZM661.861 172.49V188H666.121V172.49H661.861ZM674.875 172.49V167.84H670.615V172.49H668.035V175.34H670.615V184.49C670.615 185.27 670.745 185.9 671.005 186.38C671.265 186.86 671.615 187.23 672.055 187.49C672.515 187.75 673.035 187.92 673.615 188C674.215 188.1 674.845 188.15 675.505 188.15C675.925 188.15 676.355 188.14 676.795 188.12C677.235 188.1 677.635 188.06 677.995 188V184.7C677.795 184.74 677.585 184.77 677.365 184.79C677.145 184.81 676.915 184.82 676.675 184.82C675.955 184.82 675.475 184.7 675.235 184.46C674.995 184.22 674.875 183.74 674.875 183.02V175.34H677.995V172.49H674.875ZM694.572 188V172.49H690.312V180.62C690.312 182.2 690.052 183.34 689.532 184.04C689.012 184.72 688.172 185.06 687.012 185.06C685.992 185.06 685.282 184.75 684.882 184.13C684.482 183.49 684.282 182.53 684.282 181.25V172.49H680.022V182.03C680.022 182.99 680.102 183.87 680.262 184.67C680.442 185.45 680.742 186.12 681.162 186.68C681.582 187.22 682.152 187.64 682.872 187.94C683.612 188.24 684.552 188.39 685.692 188.39C686.592 188.39 687.472 188.19 688.332 187.79C689.192 187.39 689.892 186.74 690.432 185.84H690.522V188H694.572ZM697.806 172.49V188H702.066V181.01C702.066 180.31 702.136 179.66 702.276 179.06C702.416 178.46 702.646 177.94 702.966 177.5C703.306 177.04 703.746 176.68 704.286 176.42C704.826 176.16 705.486 176.03 706.266 176.03C706.526 176.03 706.796 176.05 707.076 176.09C707.356 176.11 707.596 176.14 707.796 176.18V172.22C707.456 172.12 707.146 172.07 706.866 172.07C706.326 172.07 705.806 172.15 705.306 172.31C704.806 172.47 704.336 172.7 703.896 173C703.456 173.28 703.066 173.63 702.726 174.05C702.386 174.45 702.116 174.89 701.916 175.37H701.856V172.49H697.806ZM719.378 178.58H712.448C712.468 178.28 712.528 177.94 712.628 177.56C712.748 177.18 712.938 176.82 713.198 176.48C713.478 176.14 713.838 175.86 714.278 175.64C714.738 175.4 715.308 175.28 715.988 175.28C717.028 175.28 717.798 175.56 718.298 176.12C718.818 176.68 719.178 177.5 719.378 178.58ZM712.448 181.28H723.638C723.718 180.08 723.618 178.93 723.338 177.83C723.058 176.73 722.598 175.75 721.958 174.89C721.338 174.03 720.538 173.35 719.558 172.85C718.578 172.33 717.428 172.07 716.108 172.07C714.928 172.07 713.848 172.28 712.868 172.7C711.908 173.12 711.078 173.7 710.378 174.44C709.678 175.16 709.138 176.02 708.758 177.02C708.378 178.02 708.188 179.1 708.188 180.26C708.188 181.46 708.368 182.56 708.728 183.56C709.108 184.56 709.638 185.42 710.318 186.14C710.998 186.86 711.828 187.42 712.808 187.82C713.788 188.2 714.888 188.39 716.108 188.39C717.868 188.39 719.368 187.99 720.608 187.19C721.848 186.39 722.768 185.06 723.368 183.2H719.618C719.478 183.68 719.098 184.14 718.478 184.58C717.858 185 717.118 185.21 716.258 185.21C715.058 185.21 714.138 184.9 713.498 184.28C712.858 183.66 712.508 182.66 712.448 181.28ZM738.355 172.49V167.84H735.805V172.49H733.165V174.74H735.805V184.61C735.805 185.33 735.875 185.91 736.015 186.35C736.155 186.79 736.365 187.13 736.645 187.37C736.945 187.61 737.325 187.78 737.785 187.88C738.265 187.96 738.835 188 739.495 188H741.445V185.75H740.275C739.875 185.75 739.545 185.74 739.285 185.72C739.045 185.68 738.855 185.61 738.715 185.51C738.575 185.41 738.475 185.27 738.415 185.09C738.375 184.91 738.355 184.67 738.355 184.37V174.74H741.445V172.49H738.355ZM746.137 180.26C746.137 179.32 746.257 178.49 746.497 177.77C746.757 177.03 747.107 176.41 747.547 175.91C747.987 175.41 748.497 175.03 749.077 174.77C749.677 174.51 750.307 174.38 750.967 174.38C751.627 174.38 752.247 174.51 752.827 174.77C753.427 175.03 753.947 175.41 754.387 175.91C754.827 176.41 755.167 177.03 755.407 177.77C755.667 178.49 755.797 179.32 755.797 180.26C755.797 181.2 755.667 182.04 755.407 182.78C755.167 183.5 754.827 184.11 754.387 184.61C753.947 185.09 753.427 185.46 752.827 185.72C752.247 185.98 751.627 186.11 750.967 186.11C750.307 186.11 749.677 185.98 749.077 185.72C748.497 185.46 747.987 185.09 747.547 184.61C747.107 184.11 746.757 183.5 746.497 182.78C746.257 182.04 746.137 181.2 746.137 180.26ZM743.437 180.26C743.437 181.4 743.597 182.46 743.917 183.44C744.237 184.42 744.717 185.28 745.357 186.02C745.997 186.74 746.787 187.31 747.727 187.73C748.667 188.13 749.747 188.33 750.967 188.33C752.207 188.33 753.287 188.13 754.207 187.73C755.147 187.31 755.937 186.74 756.577 186.02C757.217 185.28 757.697 184.42 758.017 183.44C758.337 182.46 758.497 181.4 758.497 180.26C758.497 179.12 758.337 178.06 758.017 177.08C757.697 176.08 757.217 175.22 756.577 174.5C755.937 173.76 755.147 173.18 754.207 172.76C753.287 172.34 752.207 172.13 750.967 172.13C749.747 172.13 748.667 172.34 747.727 172.76C746.787 173.18 745.997 173.76 745.357 174.5C744.717 175.22 744.237 176.08 743.917 177.08C743.597 178.06 743.437 179.12 743.437 180.26ZM771.414 183.11H768.864C768.904 184.07 769.104 184.89 769.464 185.57C769.824 186.23 770.304 186.77 770.904 187.19C771.504 187.59 772.194 187.88 772.974 188.06C773.754 188.24 774.574 188.33 775.434 188.33C776.214 188.33 776.994 188.25 777.774 188.09C778.574 187.95 779.284 187.69 779.904 187.31C780.544 186.93 781.054 186.43 781.434 185.81C781.834 185.19 782.034 184.41 782.034 183.47C782.034 182.73 781.884 182.11 781.584 181.61C781.304 181.11 780.924 180.7 780.444 180.38C779.984 180.04 779.444 179.77 778.824 179.57C778.224 179.37 777.604 179.2 776.964 179.06C776.364 178.92 775.764 178.79 775.164 178.67C774.564 178.53 774.024 178.37 773.544 178.19C773.064 177.99 772.664 177.75 772.344 177.47C772.044 177.17 771.894 176.8 771.894 176.36C771.894 175.96 771.994 175.64 772.194 175.4C772.394 175.14 772.654 174.94 772.974 174.8C773.294 174.64 773.644 174.53 774.024 174.47C774.424 174.41 774.814 174.38 775.194 174.38C775.614 174.38 776.024 174.43 776.424 174.53C776.844 174.61 777.224 174.75 777.564 174.95C777.904 175.15 778.184 175.42 778.404 175.76C778.624 176.08 778.754 176.49 778.794 176.99H781.344C781.284 176.05 781.084 175.27 780.744 174.65C780.404 174.01 779.944 173.51 779.364 173.15C778.804 172.77 778.154 172.51 777.414 172.37C776.674 172.21 775.864 172.13 774.984 172.13C774.304 172.13 773.614 172.22 772.914 172.4C772.234 172.56 771.614 172.82 771.054 173.18C770.514 173.52 770.064 173.97 769.704 174.53C769.364 175.09 769.194 175.76 769.194 176.54C769.194 177.54 769.444 178.32 769.944 178.88C770.444 179.44 771.064 179.88 771.804 180.2C772.564 180.5 773.384 180.74 774.264 180.92C775.144 181.08 775.954 181.27 776.694 181.49C777.454 181.69 778.084 181.96 778.584 182.3C779.084 182.64 779.334 183.14 779.334 183.8C779.334 184.28 779.214 184.68 778.974 185C778.734 185.3 778.424 185.53 778.044 185.69C777.684 185.85 777.284 185.96 776.844 186.02C776.404 186.08 775.984 186.11 775.584 186.11C775.064 186.11 774.554 186.06 774.054 185.96C773.574 185.86 773.134 185.7 772.734 185.48C772.354 185.24 772.044 184.93 771.804 184.55C771.564 184.15 771.434 183.67 771.414 183.11ZM800.214 188L805.164 172.49H802.524L799.044 185.18H798.984L795.744 172.49H792.954L789.834 185.18H789.774L786.264 172.49H783.444L788.424 188H791.184L794.304 175.67H794.364L797.514 188H800.214ZM818.358 178.76H809.448C809.488 178.16 809.618 177.6 809.838 177.08C810.058 176.54 810.358 176.07 810.738 175.67C811.118 175.27 811.568 174.96 812.088 174.74C812.628 174.5 813.228 174.38 813.888 174.38C814.528 174.38 815.108 174.5 815.628 174.74C816.168 174.96 816.628 175.27 817.008 175.67C817.408 176.05 817.718 176.51 817.938 177.05C818.178 177.59 818.318 178.16 818.358 178.76ZM820.818 183.08H818.298C818.078 184.1 817.618 184.86 816.918 185.36C816.238 185.86 815.358 186.11 814.278 186.11C813.438 186.11 812.708 185.97 812.088 185.69C811.468 185.41 810.958 185.04 810.558 184.58C810.158 184.1 809.868 183.56 809.688 182.96C809.508 182.34 809.428 181.69 809.448 181.01H821.058C821.098 180.07 821.008 179.08 820.788 178.04C820.588 177 820.208 176.04 819.648 175.16C819.108 174.28 818.378 173.56 817.458 173C816.558 172.42 815.418 172.13 814.038 172.13C812.978 172.13 811.998 172.33 811.098 172.73C810.218 173.13 809.448 173.69 808.788 174.41C808.148 175.13 807.648 175.98 807.288 176.96C806.928 177.94 806.748 179.02 806.748 180.2C806.788 181.38 806.958 182.47 807.258 183.47C807.578 184.47 808.048 185.33 808.668 186.05C809.288 186.77 810.048 187.33 810.948 187.73C811.868 188.13 812.948 188.33 814.188 188.33C815.948 188.33 817.408 187.89 818.568 187.01C819.728 186.13 820.478 184.82 820.818 183.08ZM834.471 178.76H825.561C825.601 178.16 825.731 177.6 825.951 177.08C826.171 176.54 826.471 176.07 826.851 175.67C827.231 175.27 827.681 174.96 828.201 174.74C828.741 174.5 829.341 174.38 830.001 174.38C830.641 174.38 831.221 174.5 831.741 174.74C832.281 174.96 832.741 175.27 833.121 175.67C833.521 176.05 833.831 176.51 834.051 177.05C834.291 177.59 834.431 178.16 834.471 178.76ZM836.931 183.08H834.411C834.191 184.1 833.731 184.86 833.031 185.36C832.351 185.86 831.471 186.11 830.391 186.11C829.551 186.11 828.821 185.97 828.201 185.69C827.581 185.41 827.071 185.04 826.671 184.58C826.271 184.1 825.981 183.56 825.801 182.96C825.621 182.34 825.541 181.69 825.561 181.01H837.171C837.211 180.07 837.121 179.08 836.901 178.04C836.701 177 836.321 176.04 835.761 175.16C835.221 174.28 834.491 173.56 833.571 173C832.671 172.42 831.531 172.13 830.151 172.13C829.091 172.13 828.111 172.33 827.211 172.73C826.331 173.13 825.561 173.69 824.901 174.41C824.261 175.13 823.761 175.98 823.401 176.96C823.041 177.94 822.861 179.02 822.861 180.2C822.901 181.38 823.071 182.47 823.371 183.47C823.691 184.47 824.161 185.33 824.781 186.05C825.401 186.77 826.161 187.33 827.061 187.73C827.981 188.13 829.061 188.33 830.301 188.33C832.061 188.33 833.521 187.89 834.681 187.01C835.841 186.13 836.591 184.82 836.931 183.08ZM843.355 172.49V167.84H840.805V172.49H838.165V174.74H840.805V184.61C840.805 185.33 840.875 185.91 841.015 186.35C841.155 186.79 841.365 187.13 841.645 187.37C841.945 187.61 842.325 187.78 842.785 187.88C843.265 187.96 843.835 188 844.495 188H846.445V185.75H845.275C844.875 185.75 844.545 185.74 844.285 185.72C844.045 185.68 843.855 185.61 843.715 185.51C843.575 185.41 843.475 185.27 843.415 185.09C843.375 184.91 843.355 184.67 843.355 184.37V174.74H846.445V172.49H843.355ZM860.047 178.76H851.137C851.177 178.16 851.307 177.6 851.527 177.08C851.747 176.54 852.047 176.07 852.427 175.67C852.807 175.27 853.257 174.96 853.777 174.74C854.317 174.5 854.917 174.38 855.577 174.38C856.217 174.38 856.797 174.5 857.317 174.74C857.857 174.96 858.317 175.27 858.697 175.67C859.097 176.05 859.407 176.51 859.627 177.05C859.867 177.59 860.007 178.16 860.047 178.76ZM862.507 183.08H859.987C859.767 184.1 859.307 184.86 858.607 185.36C857.927 185.86 857.047 186.11 855.967 186.11C855.127 186.11 854.397 185.97 853.777 185.69C853.157 185.41 852.647 185.04 852.247 184.58C851.847 184.1 851.557 183.56 851.377 182.96C851.197 182.34 851.117 181.69 851.137 181.01H862.747C862.787 180.07 862.697 179.08 862.477 178.04C862.277 177 861.897 176.04 861.337 175.16C860.797 174.28 860.067 173.56 859.147 173C858.247 172.42 857.107 172.13 855.727 172.13C854.667 172.13 853.687 172.33 852.787 172.73C851.907 173.13 851.137 173.69 850.477 174.41C849.837 175.13 849.337 175.98 848.977 176.96C848.617 177.94 848.437 179.02 848.437 180.2C848.477 181.38 848.647 182.47 848.947 183.47C849.267 184.47 849.737 185.33 850.357 186.05C850.977 186.77 851.737 187.33 852.637 187.73C853.557 188.13 854.637 188.33 855.877 188.33C857.637 188.33 859.097 187.89 860.257 187.01C861.417 186.13 862.167 184.82 862.507 183.08ZM865.391 172.49V188H867.941V179.24C867.941 178.54 868.031 177.9 868.211 177.32C868.411 176.72 868.701 176.2 869.081 175.76C869.461 175.32 869.931 174.98 870.491 174.74C871.071 174.5 871.751 174.38 872.531 174.38C873.511 174.38 874.281 174.66 874.841 175.22C875.401 175.78 875.681 176.54 875.681 177.5V188H878.231V177.8C878.231 176.96 878.141 176.2 877.961 175.52C877.801 174.82 877.511 174.22 877.091 173.72C876.671 173.22 876.121 172.83 875.441 172.55C874.761 172.27 873.911 172.13 872.891 172.13C870.591 172.13 868.911 173.07 867.851 174.95H867.791V172.49H865.391ZM896.5 190.07C896.2 190.83 895.9 191.47 895.6 191.99C895.32 192.51 895 192.93 894.64 193.25C894.3 193.59 893.91 193.83 893.47 193.97C893.05 194.13 892.56 194.21 892 194.21C891.7 194.21 891.4 194.19 891.1 194.15C890.8 194.11 890.51 194.04 890.23 193.94V191.6C890.45 191.7 890.7 191.78 890.98 191.84C891.28 191.92 891.53 191.96 891.73 191.96C892.25 191.96 892.68 191.83 893.02 191.57C893.38 191.33 893.65 190.98 893.83 190.52L894.88 187.91L888.73 172.49H891.61L896.14 185.18H896.2L900.55 172.49H903.25L896.5 190.07ZM907.27 180.26C907.27 179.32 907.39 178.49 907.63 177.77C907.89 177.03 908.24 176.41 908.68 175.91C909.12 175.41 909.63 175.03 910.21 174.77C910.81 174.51 911.44 174.38 912.1 174.38C912.76 174.38 913.38 174.51 913.96 174.77C914.56 175.03 915.08 175.41 915.52 175.91C915.96 176.41 916.3 177.03 916.54 177.77C916.8 178.49 916.93 179.32 916.93 180.26C916.93 181.2 916.8 182.04 916.54 182.78C916.3 183.5 915.96 184.11 915.52 184.61C915.08 185.09 914.56 185.46 913.96 185.72C913.38 185.98 912.76 186.11 912.1 186.11C911.44 186.11 910.81 185.98 910.21 185.72C909.63 185.46 909.12 185.09 908.68 184.61C908.24 184.11 907.89 183.5 907.63 182.78C907.39 182.04 907.27 181.2 907.27 180.26ZM904.57 180.26C904.57 181.4 904.73 182.46 905.05 183.44C905.37 184.42 905.85 185.28 906.49 186.02C907.13 186.74 907.92 187.31 908.86 187.73C909.8 188.13 910.88 188.33 912.1 188.33C913.34 188.33 914.42 188.13 915.34 187.73C916.28 187.31 917.07 186.74 917.71 186.02C918.35 185.28 918.83 184.42 919.15 183.44C919.47 182.46 919.63 181.4 919.63 180.26C919.63 179.12 919.47 178.06 919.15 177.08C918.83 176.08 918.35 175.22 917.71 174.5C917.07 173.76 916.28 173.18 915.34 172.76C914.42 172.34 913.34 172.13 912.1 172.13C910.88 172.13 909.8 172.34 908.86 172.76C907.92 173.18 907.13 173.76 906.49 174.5C905.85 175.22 905.37 176.08 905.05 177.08C904.73 178.06 904.57 179.12 904.57 180.26ZM935.477 188V172.49H932.927V181.25C932.927 181.95 932.827 182.6 932.627 183.2C932.447 183.78 932.167 184.29 931.787 184.73C931.407 185.17 930.927 185.51 930.347 185.75C929.787 185.99 929.117 186.11 928.337 186.11C927.357 186.11 926.587 185.83 926.027 185.27C925.467 184.71 925.187 183.95 925.187 182.99V172.49H922.637V182.69C922.637 183.53 922.717 184.3 922.877 185C923.057 185.68 923.357 186.27 923.777 186.77C924.197 187.27 924.747 187.66 925.427 187.94C926.107 188.2 926.957 188.33 927.977 188.33C929.117 188.33 930.107 188.11 930.947 187.67C931.787 187.21 932.477 186.5 933.017 185.54H933.077V188H935.477ZM939.217 172.49V188H941.767V181.1C941.767 180.1 941.867 179.22 942.067 178.46C942.267 177.68 942.587 177.02 943.027 176.48C943.467 175.94 944.047 175.53 944.767 175.25C945.487 174.97 946.357 174.83 947.377 174.83V172.13C945.997 172.09 944.857 172.37 943.957 172.97C943.057 173.57 942.297 174.5 941.677 175.76H941.617V172.49H939.217ZM959.207 183.11H956.657C956.697 184.07 956.897 184.89 957.257 185.57C957.617 186.23 958.097 186.77 958.697 187.19C959.297 187.59 959.987 187.88 960.767 188.06C961.547 188.24 962.367 188.33 963.227 188.33C964.007 188.33 964.787 188.25 965.567 188.09C966.367 187.95 967.077 187.69 967.697 187.31C968.337 186.93 968.847 186.43 969.227 185.81C969.627 185.19 969.827 184.41 969.827 183.47C969.827 182.73 969.677 182.11 969.377 181.61C969.097 181.11 968.717 180.7 968.237 180.38C967.777 180.04 967.237 179.77 966.617 179.57C966.017 179.37 965.397 179.2 964.757 179.06C964.157 178.92 963.557 178.79 962.957 178.67C962.357 178.53 961.817 178.37 961.337 178.19C960.857 177.99 960.457 177.75 960.137 177.47C959.837 177.17 959.687 176.8 959.687 176.36C959.687 175.96 959.787 175.64 959.987 175.4C960.187 175.14 960.447 174.94 960.767 174.8C961.087 174.64 961.437 174.53 961.817 174.47C962.217 174.41 962.607 174.38 962.987 174.38C963.407 174.38 963.817 174.43 964.217 174.53C964.637 174.61 965.017 174.75 965.357 174.95C965.697 175.15 965.977 175.42 966.197 175.76C966.417 176.08 966.547 176.49 966.587 176.99H969.137C969.077 176.05 968.877 175.27 968.537 174.65C968.197 174.01 967.737 173.51 967.157 173.15C966.597 172.77 965.947 172.51 965.207 172.37C964.467 172.21 963.657 172.13 962.777 172.13C962.097 172.13 961.407 172.22 960.707 172.4C960.027 172.56 959.407 172.82 958.847 173.18C958.307 173.52 957.857 173.97 957.497 174.53C957.157 175.09 956.987 175.76 956.987 176.54C956.987 177.54 957.237 178.32 957.737 178.88C958.237 179.44 958.857 179.88 959.597 180.2C960.357 180.5 961.177 180.74 962.057 180.92C962.937 181.08 963.747 181.27 964.487 181.49C965.247 181.69 965.877 181.96 966.377 182.3C966.877 182.64 967.127 183.14 967.127 183.8C967.127 184.28 967.007 184.68 966.767 185C966.527 185.3 966.217 185.53 965.837 185.69C965.477 185.85 965.077 185.96 964.637 186.02C964.197 186.08 963.777 186.11 963.377 186.11C962.857 186.11 962.347 186.06 961.847 185.96C961.367 185.86 960.927 185.7 960.527 185.48C960.147 185.24 959.837 184.93 959.597 184.55C959.357 184.15 959.227 183.67 959.207 183.11ZM985.487 188V172.49H982.937V181.25C982.937 181.95 982.837 182.6 982.637 183.2C982.457 183.78 982.177 184.29 981.797 184.73C981.417 185.17 980.937 185.51 980.357 185.75C979.797 185.99 979.127 186.11 978.347 186.11C977.367 186.11 976.597 185.83 976.037 185.27C975.477 184.71 975.197 183.95 975.197 182.99V172.49H972.647V182.69C972.647 183.53 972.727 184.3 972.887 185C973.067 185.68 973.367 186.27 973.787 186.77C974.207 187.27 974.757 187.66 975.437 187.94C976.117 188.2 976.967 188.33 977.987 188.33C979.127 188.33 980.117 188.11 980.957 187.67C981.797 187.21 982.487 186.5 983.027 185.54H983.087V188H985.487ZM992.016 169.7V166.58H989.466V169.7H992.016ZM989.466 172.49V188H992.016V172.49H989.466ZM999.507 172.49V167.84H996.957V172.49H994.317V174.74H996.957V184.61C996.957 185.33 997.027 185.91 997.167 186.35C997.307 186.79 997.517 187.13 997.797 187.37C998.097 187.61 998.477 187.78 998.937 187.88C999.417 187.96 999.987 188 1000.65 188H1002.6V185.75H1001.43C1001.03 185.75 1000.7 185.74 1000.44 185.72C1000.2 185.68 1000.01 185.61 999.867 185.51C999.727 185.41 999.627 185.27 999.567 185.09C999.527 184.91 999.507 184.67 999.507 184.37V174.74H1002.6V172.49H999.507ZM1016.2 178.76H1007.29C1007.33 178.16 1007.46 177.6 1007.68 177.08C1007.9 176.54 1008.2 176.07 1008.58 175.67C1008.96 175.27 1009.41 174.96 1009.93 174.74C1010.47 174.5 1011.07 174.38 1011.73 174.38C1012.37 174.38 1012.95 174.5 1013.47 174.74C1014.01 174.96 1014.47 175.27 1014.85 175.67C1015.25 176.05 1015.56 176.51 1015.78 177.05C1016.02 177.59 1016.16 178.16 1016.2 178.76ZM1018.66 183.08H1016.14C1015.92 184.1 1015.46 184.86 1014.76 185.36C1014.08 185.86 1013.2 186.11 1012.12 186.11C1011.28 186.11 1010.55 185.97 1009.93 185.69C1009.31 185.41 1008.8 185.04 1008.4 184.58C1008 184.1 1007.71 183.56 1007.53 182.96C1007.35 182.34 1007.27 181.69 1007.29 181.01H1018.9C1018.94 180.07 1018.85 179.08 1018.63 178.04C1018.43 177 1018.05 176.04 1017.49 175.16C1016.95 174.28 1016.22 173.56 1015.3 173C1014.4 172.42 1013.26 172.13 1011.88 172.13C1010.82 172.13 1009.84 172.33 1008.94 172.73C1008.06 173.13 1007.29 173.69 1006.63 174.41C1005.99 175.13 1005.49 175.98 1005.13 176.96C1004.77 177.94 1004.59 179.02 1004.59 180.2C1004.63 181.38 1004.8 182.47 1005.1 183.47C1005.42 184.47 1005.89 185.33 1006.51 186.05C1007.13 186.77 1007.89 187.33 1008.79 187.73C1009.71 188.13 1010.79 188.33 1012.03 188.33C1013.79 188.33 1015.25 187.89 1016.41 187.01C1017.57 186.13 1018.32 184.82 1018.66 183.08Z" fill="white"/>
</svg>
