<svg width="261" height="261" viewBox="0 0 261 261" fill="none" xmlns="http://www.w3.org/2000/svg">
<path d="M91.1292 33.5172H82.9494C82.9861 32.9664 83.1054 32.4523 83.3074 31.9749C83.5094 31.4791 83.7848 31.0477 84.1337 30.6804C84.4825 30.3132 84.8956 30.0286 85.373 29.8267C85.8688 29.6063 86.4196 29.4962 87.0255 29.4962C87.6131 29.4962 88.1455 29.6063 88.6229 29.8267C89.1187 30.0286 89.541 30.3132 89.8898 30.6804C90.2571 31.0293 90.5417 31.4516 90.7436 31.9473C90.964 32.4431 91.0925 32.9664 91.1292 33.5172ZM93.3876 37.4832H91.0741C90.8721 38.4196 90.4498 39.1173 89.8072 39.5763C89.1829 40.0354 88.3751 40.2649 87.3836 40.2649C86.6124 40.2649 85.9422 40.1364 85.373 39.8793C84.8038 39.6222 84.3356 39.2826 83.9684 38.8603C83.6012 38.4196 83.335 37.9239 83.1697 37.373C83.0045 36.8038 82.931 36.2071 82.9494 35.5828H93.6079C93.6447 34.7199 93.562 33.811 93.3601 32.8562C93.1765 31.9014 92.8276 31.0201 92.3135 30.2122C91.8177 29.4043 91.1476 28.7434 90.303 28.2292C89.4767 27.6968 88.4301 27.4305 87.1632 27.4305C86.1901 27.4305 85.2904 27.6142 84.4642 27.9814C83.6563 28.3486 82.9494 28.8627 82.3435 29.5237C81.7559 30.1847 81.2969 30.965 80.9664 31.8647C80.6359 32.7644 80.4706 33.7559 80.4706 34.8392C80.5074 35.9225 80.6634 36.9232 80.9388 37.8412C81.2326 38.7593 81.6641 39.5488 82.2333 40.2098C82.8025 40.8708 83.5002 41.3849 84.3265 41.7521C85.1711 42.1193 86.1626 42.303 87.3009 42.303C88.9167 42.303 90.2571 41.899 91.322 41.0911C92.3869 40.2832 93.0755 39.0806 93.3876 37.4832ZM99.8629 34.5087L94.5198 42H97.3566L101.323 36.1061L105.289 42H108.291L102.782 34.3159L107.685 27.761H104.875L101.323 32.7461L97.9074 27.761H94.9054L99.8629 34.5087ZM113.539 27.761V23.4921H111.198V27.761H108.775V29.8267H111.198V38.8878C111.198 39.5488 111.263 40.0813 111.391 40.4852C111.52 40.8892 111.712 41.2013 111.97 41.4216C112.245 41.642 112.594 41.798 113.016 41.8898C113.457 41.9633 113.98 42 114.586 42H116.376V39.9344H115.302C114.935 39.9344 114.632 39.9252 114.393 39.9068C114.173 39.8701 113.998 39.8059 113.87 39.7141C113.741 39.6222 113.65 39.4937 113.594 39.3285C113.558 39.1632 113.539 38.9429 113.539 38.6675V29.8267H116.376V27.761H113.539ZM118.894 27.761V42H121.235V35.6655C121.235 34.7474 121.327 33.9395 121.511 33.2418C121.694 32.5257 121.988 31.9198 122.392 31.4241C122.796 30.9283 123.328 30.5519 123.989 30.2949C124.65 30.0378 125.449 29.9093 126.386 29.9093V27.4305C125.119 27.3938 124.072 27.6509 123.246 28.2017C122.42 28.7525 121.722 29.6063 121.153 30.7631H121.098V27.761H118.894ZM140.762 41.9449C140.358 42.1836 139.798 42.303 139.082 42.303C138.476 42.303 137.99 42.1377 137.623 41.8072C137.274 41.4584 137.099 40.8983 137.099 40.1272C136.457 40.8983 135.704 41.4584 134.841 41.8072C133.996 42.1377 133.078 42.303 132.087 42.303C131.444 42.303 130.829 42.2295 130.242 42.0826C129.672 41.9357 129.177 41.7062 128.754 41.3941C128.332 41.0819 127.992 40.678 127.735 40.1823C127.497 39.6682 127.377 39.0531 127.377 38.337C127.377 37.5291 127.515 36.8681 127.79 36.354C128.066 35.8399 128.424 35.4268 128.865 35.1146C129.324 34.7841 129.838 34.5363 130.407 34.371C130.994 34.2058 131.591 34.068 132.197 33.9579C132.84 33.8294 133.446 33.7375 134.015 33.6825C134.602 33.609 135.116 33.5172 135.557 33.407C135.998 33.2785 136.347 33.1041 136.604 32.8838C136.861 32.6451 136.989 32.3054 136.989 31.8647C136.989 31.3506 136.888 30.9375 136.686 30.6254C136.503 30.3132 136.255 30.0745 135.943 29.9093C135.649 29.744 135.309 29.6339 134.924 29.5788C134.556 29.5237 134.189 29.4962 133.822 29.4962C132.83 29.4962 132.004 29.6889 131.343 30.0745C130.682 30.4417 130.324 31.1486 130.269 32.1952H127.928C127.965 31.3139 128.148 30.5703 128.479 29.9644C128.809 29.3584 129.25 28.8719 129.801 28.5047C130.352 28.1191 130.976 27.8437 131.674 27.6784C132.39 27.5132 133.152 27.4305 133.96 27.4305C134.602 27.4305 135.236 27.4764 135.86 27.5682C136.503 27.6601 137.081 27.8528 137.595 28.1466C138.109 28.422 138.522 28.8168 138.835 29.3309C139.147 29.845 139.303 30.5152 139.303 31.3414V38.6675C139.303 39.2183 139.33 39.6222 139.385 39.8793C139.459 40.1364 139.679 40.2649 140.046 40.2649C140.248 40.2649 140.487 40.219 140.762 40.1272V41.9449ZM136.962 34.6464C136.668 34.8667 136.282 35.032 135.805 35.1422C135.328 35.234 134.823 35.3166 134.29 35.39C133.776 35.4451 133.253 35.5186 132.72 35.6104C132.188 35.6838 131.71 35.8123 131.288 35.996C130.866 36.1796 130.517 36.4458 130.242 36.7947C129.985 37.1252 129.856 37.5842 129.856 38.1717C129.856 38.5573 129.929 38.8878 130.076 39.1632C130.242 39.4203 130.444 39.6314 130.682 39.7967C130.939 39.9619 131.233 40.0813 131.564 40.1547C131.894 40.2282 132.243 40.2649 132.61 40.2649C133.381 40.2649 134.042 40.1639 134.593 39.9619C135.144 39.7416 135.594 39.4754 135.943 39.1632C136.292 38.8327 136.549 38.4839 136.714 38.1166C136.879 37.7311 136.962 37.373 136.962 37.0425V34.6464Z" fill="#ED0000"/>
<path d="M75.1325 65.5336H84.3596C84.3596 64.2672 84.4727 63.0007 84.6989 61.7342C84.9702 60.4225 85.3999 59.2465 85.9879 58.2062C86.5759 57.1207 87.3449 56.2613 88.2947 55.6281C89.2898 54.9496 90.4884 54.6104 91.8906 54.6104C93.9712 54.6104 95.6673 55.2662 96.979 56.5779C98.336 57.8444 99.0144 59.631 99.0144 61.9378C99.0144 63.3852 98.6752 64.6742 97.9967 65.805C97.3635 66.9358 96.5494 67.9535 95.5543 68.8581C94.6044 69.7627 93.5415 70.5995 92.3655 71.3684C91.1895 72.0921 90.0813 72.8158 89.041 73.5395C87.0056 74.9416 85.0607 76.3212 83.2062 77.6781C81.397 79.035 79.8139 80.5277 78.457 82.156C77.1001 83.7391 76.0145 85.5483 75.2004 87.5837C74.4314 89.6191 74.047 92.0163 74.047 94.7754H108.92V86.4981H86.4629C87.6389 84.8698 88.9958 83.4451 90.5336 82.2238C92.0715 81.0026 93.6546 79.8718 95.2829 78.8315C96.9112 77.746 98.5169 76.6604 100.1 75.5749C101.728 74.4893 103.176 73.2907 104.442 71.979C105.709 70.6221 106.726 69.0842 107.495 67.3655C108.264 65.6467 108.649 63.5887 108.649 61.1915C108.649 58.8847 108.196 56.8041 107.292 54.9496C106.432 53.0951 105.256 51.5347 103.764 50.2682C102.271 49.0017 100.53 48.0293 98.5395 47.3508C96.5946 46.6723 94.5366 46.3331 92.3655 46.3331C89.5159 46.3331 86.983 46.8306 84.7667 47.8257C82.5956 48.7756 80.7864 50.1325 79.339 51.8965C77.8916 53.6153 76.8061 55.6507 76.0824 58.0027C75.3587 60.3094 75.0421 62.8198 75.1325 65.5336ZM121.381 70.8256C121.381 70.0115 121.381 69.039 121.381 67.9082C121.426 66.7322 121.517 65.5336 121.652 64.3124C121.788 63.0912 122.014 61.8925 122.331 60.7165C122.647 59.4953 123.077 58.4098 123.62 57.4599C124.208 56.5101 124.932 55.7411 125.791 55.1531C126.696 54.5651 127.804 54.2711 129.115 54.2711C130.427 54.2711 131.535 54.5651 132.44 55.1531C133.345 55.7411 134.091 56.5101 134.679 57.4599C135.267 58.4098 135.697 59.4953 135.968 60.7165C136.285 61.8925 136.511 63.0912 136.646 64.3124C136.827 65.5336 136.918 66.7322 136.918 67.9082C136.963 69.039 136.986 70.0115 136.986 70.8256C136.986 72.1826 136.94 73.8335 136.85 75.7784C136.759 77.6781 136.465 79.5326 135.968 81.3418C135.516 83.1058 134.747 84.6211 133.661 85.8875C132.621 87.154 131.106 87.7872 129.115 87.7872C127.17 87.7872 125.678 87.154 124.638 85.8875C123.597 84.6211 122.828 83.1058 122.331 81.3418C121.878 79.5326 121.607 77.6781 121.517 75.7784C121.426 73.8335 121.381 72.1826 121.381 70.8256ZM111.747 70.8256C111.747 75.5749 112.199 79.5552 113.104 82.7666C114.054 85.9328 115.32 88.4657 116.903 90.3654C118.486 92.2651 120.318 93.622 122.399 94.4362C124.524 95.2503 126.763 95.6574 129.115 95.6574C131.513 95.6574 133.752 95.2503 135.832 94.4362C137.958 93.622 139.813 92.2651 141.396 90.3654C143.024 88.4657 144.29 85.9328 145.195 82.7666C146.145 79.5552 146.62 75.5749 146.62 70.8256C146.62 66.2121 146.145 62.3448 145.195 59.2239C144.29 56.0577 143.024 53.5248 141.396 51.6251C139.813 49.7254 137.958 48.3685 135.832 47.5543C133.752 46.7402 131.513 46.3331 129.115 46.3331C126.763 46.3331 124.524 46.7402 122.399 47.5543C120.318 48.3685 118.486 49.7254 116.903 51.6251C115.32 53.5248 114.054 56.0577 113.104 59.2239C112.199 62.3448 111.747 66.2121 111.747 70.8256Z" fill="#ED0000"/>
<path d="M166.816 65.418C166.816 65.135 166.824 64.8187 166.841 64.4691C166.874 64.1195 166.949 63.7949 167.066 63.4953C167.182 63.1956 167.349 62.9459 167.565 62.7462C167.798 62.5464 168.115 62.4465 168.514 62.4465C168.88 62.4465 169.163 62.563 169.363 62.7961C169.58 63.0125 169.738 63.2789 169.838 63.5951C169.937 63.8948 169.996 64.2194 170.012 64.569C170.046 64.9019 170.062 65.1932 170.062 65.4429C170.062 65.7093 170.046 66.0172 170.012 66.3668C169.996 66.6998 169.929 67.0244 169.813 67.3407C169.713 67.6403 169.546 67.8983 169.313 68.1147C169.097 68.3311 168.797 68.4393 168.414 68.4393C168.015 68.4393 167.707 68.3311 167.49 68.1147C167.274 67.8983 167.116 67.6403 167.016 67.3407C166.916 67.0244 166.858 66.6914 166.841 66.3419C166.824 65.9923 166.816 65.6843 166.816 65.418ZM164.269 65.393C164.269 66.0755 164.336 66.7164 164.469 67.3157C164.619 67.915 164.852 68.4393 165.168 68.8888C165.501 69.3216 165.926 69.6629 166.442 69.9126C166.974 70.1623 167.624 70.2871 168.389 70.2871C169.122 70.2871 169.754 70.1706 170.287 69.9376C170.82 69.6879 171.253 69.3466 171.585 68.9138C171.935 68.481 172.193 67.9732 172.36 67.3906C172.526 66.808 172.609 66.1754 172.609 65.4929C172.609 64.8104 172.543 64.1695 172.409 63.5702C172.276 62.9709 172.043 62.4548 171.71 62.022C171.394 61.5726 170.978 61.223 170.462 60.9733C169.946 60.7069 169.297 60.5738 168.514 60.5738C167.782 60.5738 167.149 60.6986 166.616 60.9483C166.084 61.198 165.643 61.5393 165.293 61.9721C164.943 62.4049 164.685 62.9126 164.519 63.4953C164.352 64.0779 164.269 64.7105 164.269 65.393ZM166.192 51.9341L155.854 70.4869H158.027L168.314 51.9341H166.192ZM153.932 57.1279C153.932 56.8449 153.94 56.5203 153.957 56.154C153.99 55.7878 154.065 55.4466 154.181 55.1303C154.298 54.814 154.464 54.5476 154.681 54.3312C154.914 54.1148 155.23 54.0066 155.63 54.0066C155.996 54.0066 156.279 54.1231 156.479 54.3562C156.695 54.5892 156.853 54.8722 156.953 55.2052C157.053 55.5381 157.111 55.8877 157.128 56.2539C157.161 56.6035 157.178 56.9031 157.178 57.1528C157.178 57.4192 157.161 57.7188 157.128 58.0518C157.111 58.3681 157.045 58.676 156.928 58.9757C156.828 59.2587 156.662 59.5 156.429 59.6998C156.212 59.8996 155.913 59.9994 155.53 59.9994C155.13 59.9994 154.822 59.8996 154.606 59.6998C154.389 59.5 154.231 59.2587 154.131 58.9757C154.031 58.676 153.973 58.3597 153.957 58.0268C153.94 57.6939 153.932 57.3942 153.932 57.1279ZM151.385 57.0779C151.385 57.7605 151.451 58.4014 151.584 59.0006C151.734 59.5833 151.967 60.091 152.284 60.5238C152.616 60.94 153.041 61.2729 153.557 61.5226C154.09 61.7557 154.739 61.8722 155.505 61.8722C156.237 61.8722 156.87 61.7557 157.402 61.5226C157.935 61.2896 158.368 60.965 158.701 60.5488C159.05 60.1326 159.308 59.6415 159.475 59.0755C159.641 58.4929 159.725 57.8603 159.725 57.1778C159.725 56.4953 159.658 55.8461 159.525 55.2301C159.392 54.6142 159.159 54.0815 158.826 53.6321C158.509 53.1659 158.093 52.7997 157.577 52.5334C157.061 52.267 156.412 52.1339 155.63 52.1339C154.897 52.1339 154.264 52.267 153.732 52.5334C153.199 52.7831 152.758 53.1327 152.408 53.5821C152.059 54.0316 151.801 54.556 151.634 55.1552C151.468 55.7545 151.385 56.3954 151.385 57.0779Z" fill="#ED0000"/>
<path d="M154.326 85.1983C154.326 84.0477 154.473 83.0317 154.767 82.1504C155.085 81.2446 155.514 80.4857 156.052 79.8736C156.591 79.2616 157.215 78.7965 157.925 78.4782C158.66 78.1599 159.431 78.0008 160.239 78.0008C161.047 78.0008 161.806 78.1599 162.516 78.4782C163.25 78.7965 163.886 79.2616 164.425 79.8736C164.964 80.4857 165.38 81.2446 165.674 82.1504C165.992 83.0317 166.151 84.0477 166.151 85.1983C166.151 86.349 165.992 87.3772 165.674 88.283C165.38 89.1643 164.964 89.911 164.425 90.523C163.886 91.1106 163.25 91.5635 162.516 91.8817C161.806 92.2 161.047 92.3591 160.239 92.3591C159.431 92.3591 158.66 92.2 157.925 91.8817C157.215 91.5635 156.591 91.1106 156.052 90.523C155.514 89.911 155.085 89.1643 154.767 88.283C154.473 87.3772 154.326 86.349 154.326 85.1983ZM151.022 85.1983C151.022 86.5938 151.217 87.8913 151.609 89.0909C152.001 90.2904 152.588 91.3431 153.372 92.249C154.155 93.1303 155.122 93.828 156.273 94.3421C157.423 94.8317 158.745 95.0765 160.239 95.0765C161.757 95.0765 163.079 94.8317 164.205 94.3421C165.355 93.828 166.322 93.1303 167.106 92.249C167.889 91.3431 168.477 90.2904 168.868 89.0909C169.26 87.8913 169.456 86.5938 169.456 85.1983C169.456 83.8029 169.26 82.5054 168.868 81.3058C168.477 80.0817 167.889 79.029 167.106 78.1477C166.322 77.2419 165.355 76.5319 164.205 76.0178C163.079 75.5037 161.757 75.2467 160.239 75.2467C158.745 75.2467 157.423 75.5037 156.273 76.0178C155.122 76.5319 154.155 77.2419 153.372 78.1477C152.588 79.029 152.001 80.0817 151.609 81.3058C151.217 82.5054 151.022 83.8029 151.022 85.1983ZM184.74 78.4415H177.543V94.6726H174.421V78.4415H171.227V75.6873H174.421V72.8597C174.421 71.3174 174.862 70.1545 175.743 69.3711C176.649 68.5633 177.959 68.1593 179.673 68.1593C179.966 68.1593 180.297 68.1838 180.664 68.2328C181.056 68.2817 181.399 68.3552 181.692 68.4531V71.1705C181.423 71.0726 181.129 71.0114 180.811 70.9869C180.493 70.9379 180.199 70.9135 179.93 70.9135C179.171 70.9135 178.583 71.0604 178.167 71.3541C177.751 71.6479 177.543 72.211 177.543 73.0433V75.6873H184.74V72.8597C184.74 71.3174 185.181 70.1545 186.062 69.3711C186.968 68.5633 188.278 68.1593 189.992 68.1593C190.285 68.1593 190.616 68.1838 190.983 68.2328C191.375 68.2817 191.718 68.3552 192.011 68.4531V71.1705C191.742 71.0726 191.448 71.0114 191.13 70.9869C190.812 70.9379 190.518 70.9135 190.249 70.9135C189.49 70.9135 188.902 71.0604 188.486 71.3541C188.07 71.6479 187.862 72.211 187.862 73.0433V75.6873H191.534V78.4415H187.862V94.6726H184.74V78.4415Z" fill="#ED0000"/>
<path d="M200.252 69.1712V67.1961H199.326V69.1712L197.473 68.472L197.159 69.311L199.011 69.9753L197.875 71.5658L198.662 72.1077L199.798 70.4297L201.004 72.1077L201.721 71.5658L200.567 69.9753L202.472 69.311L202.123 68.472L200.252 69.1712Z" fill="#ED0000"/>
</svg>
